<svg width="308" height="22" viewBox="0 0 308 22" fill="none" xmlns="http://www.w3.org/2000/svg">
<path d="M7.266 7.45178V9.36979H3.262V11.4418H6.258V13.3038H3.262V17.2798H0.868V7.45178H7.266ZM13.5363 17.2798L11.4923 13.5698H10.9183V17.2798H8.52425V7.45178H12.5423C13.3169 7.45178 13.9749 7.58712 14.5163 7.85778C15.0669 8.12845 15.4776 8.50178 15.7483 8.97778C16.0189 9.44445 16.1543 9.96712 16.1543 10.5458C16.1543 11.1991 15.9676 11.7825 15.5943 12.2958C15.2303 12.8091 14.6889 13.1731 13.9703 13.3878L16.2383 17.2798H13.5363ZM10.9183 11.8758H12.4023C12.8409 11.8758 13.1676 11.7685 13.3823 11.5538C13.6063 11.3391 13.7183 11.0358 13.7183 10.6438C13.7183 10.2705 13.6063 9.97645 13.3823 9.76179C13.1676 9.54712 12.8409 9.43979 12.4023 9.43979H10.9183V11.8758ZM20.0511 9.36979V11.3578H23.2571V13.2058H20.0511V15.3618H23.6771V17.2798H17.6571V7.45178H23.6771V9.36979H20.0511ZM27.6253 9.36979V11.3578H30.8313V13.2058H27.6253V15.3618H31.2513V17.2798H25.2313V7.45178H31.2513V9.36979H27.6253Z" fill="#02A401"/>
<path d="M45.5845 9.71978V9.95779H47.3905V10.8818H45.5145C45.4305 11.5258 45.2439 12.0298 44.9545 12.3938C44.6745 12.7578 44.2639 13.0191 43.7225 13.1778C43.1905 13.3365 42.4812 13.4158 41.5945 13.4158V14.5218C41.5945 15.7818 42.1452 16.4118 43.2465 16.4118C44.3292 16.4118 44.8705 15.8051 44.8705 14.5918H46.0465C46.0372 15.5251 45.7899 16.2298 45.3045 16.7058C44.8192 17.1818 44.1285 17.4198 43.2325 17.4198C42.3085 17.4198 41.6039 17.1631 41.1185 16.6498C40.6425 16.1365 40.4045 15.4178 40.4045 14.4938V12.5198C41.4685 12.5198 42.2525 12.4871 42.7565 12.4218C43.2699 12.3471 43.6432 12.1978 43.8765 11.9738C44.1099 11.7405 44.2592 11.3765 44.3245 10.8818H39.7745V9.95779H44.3805V9.70579V8.44578H39.7745V7.50778H47.3905V8.44578H45.5845V9.71978Z" fill="#787887"/>
<path d="M39.0605 12.6878H47.9505V13.3878H39.0605V12.6878Z" fill="#787887"/>
<path d="M53.6621 8.26378H48.7481V11.4558C48.9628 11.1571 49.2801 10.9145 49.7001 10.7278C50.1201 10.5318 50.5728 10.4338 51.0581 10.4338C51.8328 10.4338 52.4628 10.5971 52.9481 10.9238C53.4334 11.2411 53.7788 11.6565 53.9841 12.1698C54.1988 12.6738 54.3061 13.2105 54.3061 13.7798C54.3061 14.4518 54.1801 15.0538 53.9281 15.5858C53.6761 16.1178 53.2888 16.5378 52.7661 16.8458C52.2528 17.1538 51.6134 17.3078 50.8481 17.3078C49.8681 17.3078 49.0748 17.0558 48.4681 16.5518C47.8614 16.0478 47.4928 15.3758 47.3621 14.5358H48.6081C48.7294 15.0678 48.9861 15.4831 49.3781 15.7818C49.7701 16.0805 50.2648 16.2298 50.8621 16.2298C51.5994 16.2298 52.1548 16.0105 52.5281 15.5718C52.9014 15.1238 53.0881 14.5358 53.0881 13.8078C53.0881 13.0798 52.9014 12.5198 52.5281 12.1278C52.1548 11.7265 51.6041 11.5258 50.8761 11.5258C50.3814 11.5258 49.9474 11.6471 49.5741 11.8898C49.2101 12.1231 48.9441 12.4451 48.7761 12.8558H47.5721V7.14378H53.6621V8.26378ZM55.9991 12.1138C55.9991 10.5085 56.2604 9.25778 56.7831 8.36178C57.3058 7.45645 58.2204 7.00378 59.5271 7.00378C60.8244 7.00378 61.7344 7.45645 62.2571 8.36178C62.7798 9.25778 63.0411 10.5085 63.0411 12.1138C63.0411 13.7471 62.7798 15.0165 62.2571 15.9218C61.7344 16.8271 60.8244 17.2798 59.5271 17.2798C58.2204 17.2798 57.3058 16.8271 56.7831 15.9218C56.2604 15.0165 55.9991 13.7471 55.9991 12.1138ZM61.7811 12.1138C61.7811 11.3018 61.7251 10.6158 61.6131 10.0558C61.5104 9.48645 61.2911 9.02912 60.9551 8.68378C60.6284 8.33845 60.1524 8.16578 59.5271 8.16578C58.8924 8.16578 58.4071 8.33845 58.0711 8.68378C57.7444 9.02912 57.5251 9.48645 57.4131 10.0558C57.3104 10.6158 57.2591 11.3018 57.2591 12.1138C57.2591 12.9538 57.3104 13.6585 57.4131 14.2278C57.5251 14.7971 57.7444 15.2545 58.0711 15.5998C58.4071 15.9451 58.8924 16.1178 59.5271 16.1178C60.1524 16.1178 60.6284 15.9451 60.9551 15.5998C61.2911 15.2545 61.5104 14.7971 61.6131 14.2278C61.7251 13.6585 61.7811 12.9538 61.7811 12.1138ZM64.7901 12.1138C64.7901 10.5085 65.0515 9.25778 65.5741 8.36178C66.0968 7.45645 67.0115 7.00378 68.3181 7.00378C69.6155 7.00378 70.5255 7.45645 71.0481 8.36178C71.5708 9.25778 71.8321 10.5085 71.8321 12.1138C71.8321 13.7471 71.5708 15.0165 71.0481 15.9218C70.5255 16.8271 69.6155 17.2798 68.3181 17.2798C67.0115 17.2798 66.0968 16.8271 65.5741 15.9218C65.0515 15.0165 64.7901 13.7471 64.7901 12.1138ZM70.5721 12.1138C70.5721 11.3018 70.5161 10.6158 70.4041 10.0558C70.3015 9.48645 70.0821 9.02912 69.7461 8.68378C69.4195 8.33845 68.9435 8.16578 68.3181 8.16578C67.6835 8.16578 67.1981 8.33845 66.8621 8.68378C66.5355 9.02912 66.3161 9.48645 66.2041 10.0558C66.1015 10.6158 66.0501 11.3018 66.0501 12.1138C66.0501 12.9538 66.1015 13.6585 66.2041 14.2278C66.3161 14.7971 66.5355 15.2545 66.8621 15.5998C67.1981 15.9451 67.6835 16.1178 68.3181 16.1178C68.9435 16.1178 69.4195 15.9451 69.7461 15.5998C70.0821 15.2545 70.3015 14.7971 70.4041 14.2278C70.5161 13.6585 70.5721 12.9538 70.5721 12.1138Z" fill="#787887"/>
<path d="M46.3401 12.6878H72.7141V13.3878H46.3401V12.6878Z" fill="#787887"/>
<path d="M77.3012 10.7439C77.3012 9.79188 77.5159 8.93788 77.9452 8.18188C78.3746 7.41655 78.9579 6.81922 79.6952 6.38988C80.4419 5.96055 81.2679 5.74588 82.1732 5.74588C83.2372 5.74588 84.1659 6.00255 84.9592 6.51588C85.7526 7.02922 86.3312 7.75722 86.6952 8.69988H85.1692C84.8986 8.11188 84.5066 7.65922 83.9932 7.34188C83.4892 7.02455 82.8826 6.86588 82.1732 6.86588C81.4919 6.86588 80.8806 7.02455 80.3392 7.34188C79.7979 7.65922 79.3732 8.11188 79.0652 8.69988C78.7572 9.27855 78.6032 9.95988 78.6032 10.7439C78.6032 11.5185 78.7572 12.1999 79.0652 12.7879C79.3732 13.3665 79.7979 13.8145 80.3392 14.1319C80.8806 14.4492 81.4919 14.6079 82.1732 14.6079C82.8826 14.6079 83.4892 14.4539 83.9932 14.1459C84.5066 13.8285 84.8986 13.3759 85.1692 12.7879H86.6952C86.3312 13.7212 85.7526 14.4445 84.9592 14.9579C84.1659 15.4619 83.2372 15.7139 82.1732 15.7139C81.2679 15.7139 80.4419 15.5039 79.6952 15.0839C78.9579 14.6545 78.3746 14.0619 77.9452 13.3059C77.5159 12.5499 77.3012 11.6959 77.3012 10.7439ZM91.9377 15.7559C91.219 15.7559 90.5657 15.5925 89.9777 15.2659C89.399 14.9392 88.9417 14.4772 88.6057 13.8799C88.279 13.2732 88.1157 12.5732 88.1157 11.7799C88.1157 10.9959 88.2837 10.3052 88.6197 9.70788C88.965 9.10122 89.4317 8.63922 90.0197 8.32188C90.6077 7.99522 91.2657 7.83188 91.9937 7.83188C92.7217 7.83188 93.3797 7.99522 93.9677 8.32188C94.5557 8.63922 95.0177 9.09655 95.3537 9.69388C95.699 10.2912 95.8717 10.9865 95.8717 11.7799C95.8717 12.5732 95.6943 13.2732 95.3397 13.8799C94.9943 14.4772 94.523 14.9392 93.9257 15.2659C93.3283 15.5925 92.6657 15.7559 91.9377 15.7559ZM91.9377 14.6359C92.395 14.6359 92.8243 14.5285 93.2257 14.3139C93.627 14.0992 93.949 13.7772 94.1917 13.3479C94.4437 12.9185 94.5697 12.3959 94.5697 11.7799C94.5697 11.1639 94.4483 10.6412 94.2057 10.2119C93.963 9.78255 93.6457 9.46522 93.2537 9.25988C92.8617 9.04522 92.437 8.93788 91.9797 8.93788C91.513 8.93788 91.0837 9.04522 90.6917 9.25988C90.309 9.46522 90.001 9.78255 89.7677 10.2119C89.5343 10.6412 89.4177 11.1639 89.4177 11.7799C89.4177 12.4052 89.5297 12.9325 89.7537 13.3619C89.987 13.7912 90.295 14.1132 90.6777 14.3279C91.0603 14.5332 91.4803 14.6359 91.9377 14.6359ZM101.285 7.81788C102.218 7.81788 102.974 8.10255 103.553 8.67188C104.131 9.23188 104.421 10.0439 104.421 11.1079V15.6299H103.161V11.2899C103.161 10.5245 102.969 9.94122 102.587 9.53988C102.204 9.12922 101.681 8.92388 101.019 8.92388C100.347 8.92388 99.8101 9.13388 99.4088 9.55388C99.0168 9.97388 98.8208 10.5852 98.8208 11.3879V15.6299H97.5468V7.95788H98.8208V9.04988C99.0728 8.65788 99.4134 8.35455 99.8428 8.13988C100.281 7.92522 100.762 7.81788 101.285 7.81788ZM109.218 15.7559C108.63 15.7559 108.102 15.6579 107.636 15.4619C107.169 15.2565 106.8 14.9765 106.53 14.6219C106.259 14.2579 106.11 13.8425 106.082 13.3759H107.398C107.435 13.7585 107.612 14.0712 107.93 14.3139C108.256 14.5565 108.681 14.6779 109.204 14.6779C109.689 14.6779 110.072 14.5705 110.352 14.3559C110.632 14.1412 110.772 13.8705 110.772 13.5439C110.772 13.2079 110.622 12.9605 110.324 12.8019C110.025 12.6339 109.563 12.4705 108.938 12.3119C108.368 12.1625 107.902 12.0132 107.538 11.8639C107.183 11.7052 106.875 11.4765 106.614 11.1779C106.362 10.8699 106.236 10.4685 106.236 9.97388C106.236 9.58188 106.352 9.22255 106.586 8.89588C106.819 8.56922 107.15 8.31255 107.58 8.12588C108.009 7.92988 108.499 7.83188 109.05 7.83188C109.899 7.83188 110.585 8.04655 111.108 8.47588C111.63 8.90522 111.91 9.49322 111.948 10.2399H110.674C110.646 9.83855 110.482 9.51655 110.184 9.27388C109.894 9.03122 109.502 8.90988 109.008 8.90988C108.55 8.90988 108.186 9.00788 107.916 9.20388C107.645 9.39988 107.51 9.65655 107.51 9.97388C107.51 10.2259 107.589 10.4359 107.748 10.6039C107.916 10.7625 108.121 10.8932 108.364 10.9959C108.616 11.0892 108.961 11.1965 109.4 11.3179C109.95 11.4672 110.398 11.6165 110.744 11.7659C111.089 11.9059 111.383 12.1205 111.626 12.4099C111.878 12.6992 112.008 13.0772 112.018 13.5439C112.018 13.9639 111.901 14.3419 111.668 14.6779C111.434 15.0139 111.103 15.2799 110.674 15.4759C110.254 15.6625 109.768 15.7559 109.218 15.7559ZM120.62 7.95788V15.6299H119.346V14.4959C119.104 14.8879 118.763 15.1959 118.324 15.4199C117.895 15.6345 117.419 15.7419 116.896 15.7419C116.299 15.7419 115.762 15.6205 115.286 15.3779C114.81 15.1259 114.432 14.7525 114.152 14.2579C113.882 13.7632 113.746 13.1612 113.746 12.4519V7.95788H115.006V12.2839C115.006 13.0399 115.198 13.6232 115.58 14.0339C115.963 14.4352 116.486 14.6359 117.148 14.6359C117.83 14.6359 118.366 14.4259 118.758 14.0059C119.15 13.5859 119.346 12.9745 119.346 12.1719V7.95788H120.62ZM124.045 5.26988V15.6299H122.771V5.26988H124.045ZM127.771 9.00788V13.5299C127.771 13.9032 127.85 14.1692 128.009 14.3279C128.167 14.4772 128.443 14.5519 128.835 14.5519H129.773V15.6299H128.625C127.915 15.6299 127.383 15.4665 127.029 15.1399C126.674 14.8132 126.497 14.2765 126.497 13.5299V9.00788H125.503V7.95788H126.497V6.02588H127.771V7.95788H129.773V9.00788H127.771ZM130.84 11.7659C130.84 10.9819 130.999 10.2959 131.316 9.70788C131.634 9.11055 132.068 8.64855 132.618 8.32188C133.178 7.99522 133.799 7.83188 134.48 7.83188C135.152 7.83188 135.736 7.97655 136.23 8.26588C136.725 8.55522 137.094 8.91922 137.336 9.35788V7.95788H138.624V15.6299H137.336V14.2019C137.084 14.6499 136.706 15.0232 136.202 15.3219C135.708 15.6112 135.129 15.7559 134.466 15.7559C133.785 15.7559 133.169 15.5879 132.618 15.2519C132.068 14.9159 131.634 14.4445 131.316 13.8379C130.999 13.2312 130.84 12.5405 130.84 11.7659ZM137.336 11.7799C137.336 11.2012 137.22 10.6972 136.986 10.2679C136.753 9.83855 136.436 9.51188 136.034 9.28788C135.642 9.05455 135.208 8.93788 134.732 8.93788C134.256 8.93788 133.822 9.04988 133.43 9.27388C133.038 9.49788 132.726 9.82455 132.492 10.2539C132.259 10.6832 132.142 11.1872 132.142 11.7659C132.142 12.3539 132.259 12.8672 132.492 13.3059C132.726 13.7352 133.038 14.0665 133.43 14.2999C133.822 14.5239 134.256 14.6359 134.732 14.6359C135.208 14.6359 135.642 14.5239 136.034 14.2999C136.436 14.0665 136.753 13.7352 136.986 13.3059C137.22 12.8672 137.336 12.3585 137.336 11.7799ZM142.331 9.00788V13.5299C142.331 13.9032 142.411 14.1692 142.569 14.3279C142.728 14.4772 143.003 14.5519 143.395 14.5519H144.333V15.6299H143.185C142.476 15.6299 141.944 15.4665 141.589 15.1399C141.235 14.8132 141.057 14.2765 141.057 13.5299V9.00788H140.063V7.95788H141.057V6.02588H142.331V7.95788H144.333V9.00788H142.331ZM146.535 6.71188C146.292 6.71188 146.087 6.62788 145.919 6.45988C145.751 6.29188 145.667 6.08655 145.667 5.84388C145.667 5.60122 145.751 5.39588 145.919 5.22788C146.087 5.05988 146.292 4.97588 146.535 4.97588C146.768 4.97588 146.964 5.05988 147.123 5.22788C147.291 5.39588 147.375 5.60122 147.375 5.84388C147.375 6.08655 147.291 6.29188 147.123 6.45988C146.964 6.62788 146.768 6.71188 146.535 6.71188ZM147.151 7.95788V15.6299H145.877V7.95788H147.151ZM152.668 15.7559C151.949 15.7559 151.296 15.5925 150.708 15.2659C150.129 14.9392 149.672 14.4772 149.336 13.8799C149.009 13.2732 148.846 12.5732 148.846 11.7799C148.846 10.9959 149.014 10.3052 149.35 9.70788C149.695 9.10122 150.162 8.63922 150.75 8.32188C151.338 7.99522 151.996 7.83188 152.724 7.83188C153.452 7.83188 154.11 7.99522 154.698 8.32188C155.286 8.63922 155.748 9.09655 156.084 9.69388C156.429 10.2912 156.602 10.9865 156.602 11.7799C156.602 12.5732 156.425 13.2732 156.07 13.8799C155.725 14.4772 155.253 14.9392 154.656 15.2659C154.059 15.5925 153.396 15.7559 152.668 15.7559ZM152.668 14.6359C153.125 14.6359 153.555 14.5285 153.956 14.3139C154.357 14.0992 154.679 13.7772 154.922 13.3479C155.174 12.9185 155.3 12.3959 155.3 11.7799C155.3 11.1639 155.179 10.6412 154.936 10.2119C154.693 9.78255 154.376 9.46522 153.984 9.25988C153.592 9.04522 153.167 8.93788 152.71 8.93788C152.243 8.93788 151.814 9.04522 151.422 9.25988C151.039 9.46522 150.731 9.78255 150.498 10.2119C150.265 10.6412 150.148 11.1639 150.148 11.7799C150.148 12.4052 150.26 12.9325 150.484 13.3619C150.717 13.7912 151.025 14.1132 151.408 14.3279C151.791 14.5332 152.211 14.6359 152.668 14.6359ZM162.015 7.81788C162.949 7.81788 163.705 8.10255 164.283 8.67188C164.862 9.23188 165.151 10.0439 165.151 11.1079V15.6299H163.891V11.2899C163.891 10.5245 163.7 9.94122 163.317 9.53988C162.935 9.12922 162.412 8.92388 161.749 8.92388C161.077 8.92388 160.541 9.13388 160.139 9.55388C159.747 9.97388 159.551 10.5852 159.551 11.3879V15.6299H158.277V7.95788H159.551V9.04988C159.803 8.65788 160.144 8.35455 160.573 8.13988C161.012 7.92522 161.493 7.81788 162.015 7.81788ZM174.087 9.00788H172.477V15.6299H171.203V9.00788H170.209V7.95788H171.203V7.41188C171.203 6.55322 171.422 5.92788 171.861 5.53588C172.309 5.13455 173.023 4.93388 174.003 4.93388V5.99788C173.443 5.99788 173.046 6.10988 172.813 6.33388C172.589 6.54855 172.477 6.90788 172.477 7.41188V7.95788H174.087V9.00788ZM182.572 11.4999C182.572 11.7425 182.558 11.9992 182.53 12.2699H176.398C176.445 13.0259 176.701 13.6185 177.168 14.0479C177.644 14.4679 178.218 14.6779 178.89 14.6779C179.441 14.6779 179.898 14.5519 180.262 14.2999C180.635 14.0385 180.897 13.6932 181.046 13.2639H182.418C182.213 14.0012 181.802 14.6032 181.186 15.0699C180.57 15.5272 179.805 15.7559 178.89 15.7559C178.162 15.7559 177.509 15.5925 176.93 15.2659C176.361 14.9392 175.913 14.4772 175.586 13.8799C175.259 13.2732 175.096 12.5732 175.096 11.7799C175.096 10.9865 175.255 10.2912 175.572 9.69388C175.889 9.09655 176.333 8.63922 176.902 8.32188C177.481 7.99522 178.143 7.83188 178.89 7.83188C179.618 7.83188 180.262 7.99055 180.822 8.30788C181.382 8.62522 181.811 9.06388 182.11 9.62388C182.418 10.1745 182.572 10.7999 182.572 11.4999ZM181.256 11.2339C181.256 10.7485 181.149 10.3332 180.934 9.98788C180.719 9.63322 180.425 9.36722 180.052 9.18988C179.688 9.00322 179.282 8.90988 178.834 8.90988C178.19 8.90988 177.639 9.11522 177.182 9.52588C176.734 9.93655 176.477 10.5059 176.412 11.2339H181.256ZM191.254 11.4999C191.254 11.7425 191.24 11.9992 191.212 12.2699H185.08C185.126 13.0259 185.383 13.6185 185.85 14.0479C186.326 14.4679 186.9 14.6779 187.572 14.6779C188.122 14.6779 188.58 14.5519 188.944 14.2999C189.317 14.0385 189.578 13.6932 189.728 13.2639H191.1C190.894 14.0012 190.484 14.6032 189.868 15.0699C189.252 15.5272 188.486 15.7559 187.572 15.7559C186.844 15.7559 186.19 15.5925 185.612 15.2659C185.042 14.9392 184.594 14.4772 184.268 13.8799C183.941 13.2732 183.778 12.5732 183.778 11.7799C183.778 10.9865 183.936 10.2912 184.254 9.69388C184.571 9.09655 185.014 8.63922 185.584 8.32188C186.162 7.99522 186.825 7.83188 187.572 7.83188C188.3 7.83188 188.944 7.99055 189.504 8.30788C190.064 8.62522 190.493 9.06388 190.792 9.62388C191.1 10.1745 191.254 10.7999 191.254 11.4999ZM189.938 11.2339C189.938 10.7485 189.83 10.3332 189.616 9.98788C189.401 9.63322 189.107 9.36722 188.734 9.18988C188.37 9.00322 187.964 8.90988 187.516 8.90988C186.872 8.90988 186.321 9.11522 185.864 9.52588C185.416 9.93655 185.159 10.5059 185.094 11.2339H189.938ZM196.192 11.7659C196.192 10.9819 196.351 10.2959 196.668 9.70788C196.985 9.11055 197.419 8.64855 197.97 8.32188C198.53 7.99522 199.151 7.83188 199.832 7.83188C200.504 7.83188 201.087 7.97655 201.582 8.26588C202.077 8.55522 202.445 8.91922 202.688 9.35788V7.95788H203.976V15.6299H202.688V14.2019C202.436 14.6499 202.058 15.0232 201.554 15.3219C201.059 15.6112 200.481 15.7559 199.818 15.7559C199.137 15.7559 198.521 15.5879 197.97 15.2519C197.419 14.9159 196.985 14.4445 196.668 13.8379C196.351 13.2312 196.192 12.5405 196.192 11.7659ZM202.688 11.7799C202.688 11.2012 202.571 10.6972 202.338 10.2679C202.105 9.83855 201.787 9.51188 201.386 9.28788C200.994 9.05455 200.56 8.93788 200.084 8.93788C199.608 8.93788 199.174 9.04988 198.782 9.27388C198.39 9.49788 198.077 9.82455 197.844 10.2539C197.611 10.6832 197.494 11.1872 197.494 11.7659C197.494 12.3539 197.611 12.8672 197.844 13.3059C198.077 13.7352 198.39 14.0665 198.782 14.2999C199.174 14.5239 199.608 14.6359 200.084 14.6359C200.56 14.6359 200.994 14.5239 201.386 14.2999C201.787 14.0665 202.105 13.7352 202.338 13.3059C202.571 12.8672 202.688 12.3585 202.688 11.7799ZM207.683 9.00788V13.5299C207.683 13.9032 207.762 14.1692 207.921 14.3279C208.079 14.4772 208.355 14.5519 208.747 14.5519H209.685V15.6299H208.537C207.827 15.6299 207.295 15.4665 206.941 15.1399C206.586 14.8132 206.409 14.2765 206.409 13.5299V9.00788H205.415V7.95788H206.409V6.02588H207.683V7.95788H209.685V9.00788H207.683ZM214.485 11.7799C214.485 10.9865 214.643 10.2959 214.961 9.70788C215.278 9.11055 215.717 8.64855 216.277 8.32188C216.846 7.99522 217.495 7.83188 218.223 7.83188C219.165 7.83188 219.94 8.06055 220.547 8.51788C221.163 8.97522 221.569 9.60988 221.765 10.4219H220.393C220.262 9.95522 220.005 9.58655 219.623 9.31588C219.249 9.04522 218.783 8.90988 218.223 8.90988C217.495 8.90988 216.907 9.16188 216.459 9.66588C216.011 10.1605 215.787 10.8652 215.787 11.7799C215.787 12.7039 216.011 13.4179 216.459 13.9219C216.907 14.4259 217.495 14.6779 218.223 14.6779C218.783 14.6779 219.249 14.5472 219.623 14.2859C219.996 14.0245 220.253 13.6512 220.393 13.1659H221.765C221.559 13.9499 221.149 14.5799 220.533 15.0559C219.917 15.5225 219.147 15.7559 218.223 15.7559C217.495 15.7559 216.846 15.5925 216.277 15.2659C215.717 14.9392 215.278 14.4772 214.961 13.8799C214.643 13.2825 214.485 12.5825 214.485 11.7799ZM224.739 5.26988V15.6299H223.465V5.26988H224.739ZM227.568 6.71188C227.325 6.71188 227.12 6.62788 226.952 6.45988C226.784 6.29188 226.7 6.08655 226.7 5.84388C226.7 5.60122 226.784 5.39588 226.952 5.22788C227.12 5.05988 227.325 4.97588 227.568 4.97588C227.801 4.97588 227.997 5.05988 228.156 5.22788C228.324 5.39588 228.408 5.60122 228.408 5.84388C228.408 6.08655 228.324 6.29188 228.156 6.45988C227.997 6.62788 227.801 6.71188 227.568 6.71188ZM228.184 7.95788V15.6299H226.91V7.95788H228.184ZM234.093 7.81788C235.027 7.81788 235.783 8.10255 236.361 8.67188C236.94 9.23188 237.229 10.0439 237.229 11.1079V15.6299H235.969V11.2899C235.969 10.5245 235.778 9.94122 235.395 9.53988C235.013 9.12922 234.49 8.92388 233.827 8.92388C233.155 8.92388 232.619 9.13388 232.217 9.55388C231.825 9.97388 231.629 10.5852 231.629 11.3879V15.6299H230.355V7.95788H231.629V9.04988C231.881 8.65788 232.222 8.35455 232.651 8.13988C233.09 7.92522 233.571 7.81788 234.093 7.81788ZM239.968 6.71188C239.726 6.71188 239.52 6.62788 239.352 6.45988C239.184 6.29188 239.1 6.08655 239.1 5.84388C239.1 5.60122 239.184 5.39588 239.352 5.22788C239.52 5.05988 239.726 4.97588 239.968 4.97588C240.202 4.97588 240.398 5.05988 240.556 5.22788C240.724 5.39588 240.808 5.60122 240.808 5.84388C240.808 6.08655 240.724 6.29188 240.556 6.45988C240.398 6.62788 240.202 6.71188 239.968 6.71188ZM240.584 7.95788V15.6299H239.31V7.95788H240.584ZM242.28 11.7799C242.28 10.9865 242.438 10.2959 242.756 9.70788C243.073 9.11055 243.512 8.64855 244.072 8.32188C244.641 7.99522 245.29 7.83188 246.018 7.83188C246.96 7.83188 247.735 8.06055 248.342 8.51788C248.958 8.97522 249.364 9.60988 249.56 10.4219H248.188C248.057 9.95522 247.8 9.58655 247.418 9.31588C247.044 9.04522 246.578 8.90988 246.018 8.90988C245.29 8.90988 244.702 9.16188 244.254 9.66588C243.806 10.1605 243.582 10.8652 243.582 11.7799C243.582 12.7039 243.806 13.4179 244.254 13.9219C244.702 14.4259 245.29 14.6779 246.018 14.6779C246.578 14.6779 247.044 14.5472 247.418 14.2859C247.791 14.0245 248.048 13.6512 248.188 13.1659H249.56C249.354 13.9499 248.944 14.5799 248.328 15.0559C247.712 15.5225 246.942 15.7559 246.018 15.7559C245.29 15.7559 244.641 15.5925 244.072 15.2659C243.512 14.9392 243.073 14.4772 242.756 13.8799C242.438 13.2825 242.28 12.5825 242.28 11.7799Z" fill="#414146"/>
</svg>
