<svg width="308" height="41" viewBox="0 0 308 41" fill="none" xmlns="http://www.w3.org/2000/svg">
<mask id="path-1-inside-1_2475_75" fill="white">
<path d="M0 0.879883H307.55V40.3799H0V0.879883Z"/>
</mask>
<path d="M307.55 0.379883H306.062V1.37988H307.55V0.379883ZM304.078 0.379883H301.101V1.37988H304.078V0.379883ZM299.117 0.379883H296.141V1.37988H299.117V0.379883ZM294.157 0.379883H291.18V1.37988H294.157V0.379883ZM289.196 0.379883H286.22V1.37988H289.196V0.379883ZM284.236 0.379883H281.259V1.37988H284.236V0.379883ZM279.275 0.379883H276.299V1.37988H279.275V0.379883ZM274.315 0.379883H271.338V1.37988H274.315V0.379883ZM269.354 0.379883H266.378V1.37988H269.354V0.379883ZM264.394 0.379883H261.417V1.37988H264.394V0.379883ZM259.433 0.379883H256.457V1.37988H259.433V0.379883ZM254.473 0.379883H251.497V1.37988H254.473V0.379883ZM249.512 0.379883H246.536V1.37988H249.512V0.379883ZM244.552 0.379883H241.576V1.37988H244.552V0.379883ZM239.591 0.379883H236.615V1.37988H239.591V0.379883ZM234.631 0.379883H231.655V1.37988H234.631V0.379883ZM229.67 0.379883H226.694V1.37988H229.67V0.379883ZM224.71 0.379883H221.734V1.37988H224.71V0.379883ZM219.749 0.379883H216.773V1.37988H219.749V0.379883ZM214.789 0.379883H211.813V1.37988H214.789V0.379883ZM209.828 0.379883H206.852V1.37988H209.828V0.379883ZM204.868 0.379883H201.892V1.37988H204.868V0.379883ZM199.908 0.379883H196.931V1.37988H199.908V0.379883ZM194.947 0.379883H191.971V1.37988H194.947V0.379883ZM189.987 0.379883H187.01V1.37988H189.987V0.379883ZM185.026 0.379883H182.05V1.37988H185.026V0.379883ZM180.066 0.379883H177.089V1.37988H180.066V0.379883ZM175.105 0.379883H172.129V1.37988H175.105V0.379883ZM170.145 0.379883H167.168V1.37988H170.145V0.379883ZM165.184 0.379883H162.208V1.37988H165.184V0.379883ZM160.224 0.379883H157.247V1.37988H160.224V0.379883ZM155.263 0.379883H152.287V1.37988H155.263V0.379883ZM150.303 0.379883H147.326V1.37988H150.303V0.379883ZM145.342 0.379883H142.366V1.37988H145.342V0.379883ZM140.382 0.379883H137.405V1.37988H140.382V0.379883ZM135.421 0.379883H132.445V1.37988H135.421V0.379883ZM130.461 0.379883H127.485V1.37988H130.461V0.379883ZM125.5 0.379883H122.524V1.37988H125.5V0.379883ZM120.54 0.379883H117.564V1.37988H120.54V0.379883ZM115.579 0.379883H112.603V1.37988H115.579V0.379883ZM110.619 0.379883H107.643V1.37988H110.619V0.379883ZM105.658 0.379883H102.682V1.37988H105.658V0.379883ZM100.698 0.379883H97.7216V1.37988H100.698V0.379883ZM95.7374 0.379883H92.7612V1.37988H95.7374V0.379883ZM90.777 0.379883H87.8007V1.37988H90.777V0.379883ZM85.8165 0.379883H82.8402V1.37988H85.8165V0.379883ZM80.856 0.379883H77.8797V1.37988H80.856V0.379883ZM75.8955 0.379883H72.9192V1.37988H75.8955V0.379883ZM70.9351 0.379883H67.9588V1.37988H70.9351V0.379883ZM65.9746 0.379883H62.9983V1.37988H65.9746V0.379883ZM61.0141 0.379883H58.0378V1.37988H61.0141V0.379883ZM56.0536 0.379883H53.0773V1.37988H56.0536V0.379883ZM51.0931 0.379883H48.1168V1.37988H51.0931V0.379883ZM46.1326 0.379883H43.1563V1.37988H46.1326V0.379883ZM41.1722 0.379883H38.1959V1.37988H41.1722V0.379883ZM36.2117 0.379883H33.2354V1.37988H36.2117V0.379883ZM31.2512 0.379883H28.2749V1.37988H31.2512V0.379883ZM26.2907 0.379883H23.3144V1.37988H26.2907V0.379883ZM21.3302 0.379883H18.3539V1.37988H21.3302V0.379883ZM16.3697 0.379883H13.3935V1.37988H16.3697V0.379883ZM11.4093 0.379883H8.43298V1.37988H11.4093V0.379883ZM6.44879 0.379883H3.4725V1.37988H6.44879V0.379883ZM1.48831 0.379883H0V1.37988H1.48831V0.379883ZM307.55 -0.120117H306.062V1.87988H307.55V-0.120117ZM304.078 -0.120117H301.101V1.87988H304.078V-0.120117ZM299.117 -0.120117H296.141V1.87988H299.117V-0.120117ZM294.157 -0.120117H291.18V1.87988H294.157V-0.120117ZM289.196 -0.120117H286.22V1.87988H289.196V-0.120117ZM284.236 -0.120117H281.259V1.87988H284.236V-0.120117ZM279.275 -0.120117H276.299V1.87988H279.275V-0.120117ZM274.315 -0.120117H271.338V1.87988H274.315V-0.120117ZM269.354 -0.120117H266.378V1.87988H269.354V-0.120117ZM264.394 -0.120117H261.417V1.87988H264.394V-0.120117ZM259.433 -0.120117H256.457V1.87988H259.433V-0.120117ZM254.473 -0.120117H251.497V1.87988H254.473V-0.120117ZM249.512 -0.120117H246.536V1.87988H249.512V-0.120117ZM244.552 -0.120117H241.576V1.87988H244.552V-0.120117ZM239.591 -0.120117H236.615V1.87988H239.591V-0.120117ZM234.631 -0.120117H231.655V1.87988H234.631V-0.120117ZM229.67 -0.120117H226.694V1.87988H229.67V-0.120117ZM224.71 -0.120117H221.734V1.87988H224.71V-0.120117ZM219.749 -0.120117H216.773V1.87988H219.749V-0.120117ZM214.789 -0.120117H211.813V1.87988H214.789V-0.120117ZM209.828 -0.120117H206.852V1.87988H209.828V-0.120117ZM204.868 -0.120117H201.892V1.87988H204.868V-0.120117ZM199.908 -0.120117H196.931V1.87988H199.908V-0.120117ZM194.947 -0.120117H191.971V1.87988H194.947V-0.120117ZM189.987 -0.120117H187.01V1.87988H189.987V-0.120117ZM185.026 -0.120117H182.05V1.87988H185.026V-0.120117ZM180.066 -0.120117H177.089V1.87988H180.066V-0.120117ZM175.105 -0.120117H172.129V1.87988H175.105V-0.120117ZM170.145 -0.120117H167.168V1.87988H170.145V-0.120117ZM165.184 -0.120117H162.208V1.87988H165.184V-0.120117ZM160.224 -0.120117H157.247V1.87988H160.224V-0.120117ZM155.263 -0.120117H152.287V1.87988H155.263V-0.120117ZM150.303 -0.120117H147.326V1.87988H150.303V-0.120117ZM145.342 -0.120117H142.366V1.87988H145.342V-0.120117ZM140.382 -0.120117H137.405V1.87988H140.382V-0.120117ZM135.421 -0.120117H132.445V1.87988H135.421V-0.120117ZM130.461 -0.120117H127.485V1.87988H130.461V-0.120117ZM125.5 -0.120117H122.524V1.87988H125.5V-0.120117ZM120.54 -0.120117H117.564V1.87988H120.54V-0.120117ZM115.579 -0.120117H112.603V1.87988H115.579V-0.120117ZM110.619 -0.120117H107.643V1.87988H110.619V-0.120117ZM105.658 -0.120117H102.682V1.87988H105.658V-0.120117ZM100.698 -0.120117H97.7216V1.87988H100.698V-0.120117ZM95.7374 -0.120117H92.7612V1.87988H95.7374V-0.120117ZM90.777 -0.120117H87.8007V1.87988H90.777V-0.120117ZM85.8165 -0.120117H82.8402V1.87988H85.8165V-0.120117ZM80.856 -0.120117H77.8797V1.87988H80.856V-0.120117ZM75.8955 -0.120117H72.9192V1.87988H75.8955V-0.120117ZM70.9351 -0.120117H67.9588V1.87988H70.9351V-0.120117ZM65.9746 -0.120117H62.9983V1.87988H65.9746V-0.120117ZM61.0141 -0.120117H58.0378V1.87988H61.0141V-0.120117ZM56.0536 -0.120117H53.0773V1.87988H56.0536V-0.120117ZM51.0931 -0.120117H48.1168V1.87988H51.0931V-0.120117ZM46.1326 -0.120117H43.1563V1.87988H46.1326V-0.120117ZM41.1722 -0.120117H38.1959V1.87988H41.1722V-0.120117ZM36.2117 -0.120117H33.2354V1.87988H36.2117V-0.120117ZM31.2512 -0.120117H28.2749V1.87988H31.2512V-0.120117ZM26.2907 -0.120117H23.3144V1.87988H26.2907V-0.120117ZM21.3302 -0.120117H18.3539V1.87988H21.3302V-0.120117ZM16.3697 -0.120117H13.3935V1.87988H16.3697V-0.120117ZM11.4093 -0.120117H8.43298V1.87988H11.4093V-0.120117ZM6.44879 -0.120117H3.4725V1.87988H6.44879V-0.120117ZM1.48831 -0.120117H0V1.87988H1.48831V-0.120117Z" fill="#E8E8F0" mask="url(#path-1-inside-1_2475_75)"/>
<rect y="17.8799" width="44.08" height="22.5" rx="3.5" fill="#00A500"/>
<g clip-path="url(#clip0_2475_75)">
<path d="M11.9674 27.6299H13.7174V34.6299H11.9674C11.6452 34.6299 11.384 34.3687 11.384 34.0465V28.2132C11.384 27.891 11.6452 27.6299 11.9674 27.6299ZM15.0549 26.8757L18.7885 23.1421C18.8911 23.0394 19.0536 23.0279 19.1697 23.115L19.6671 23.488C19.9498 23.7 20.0772 24.0614 19.99 24.4039L19.3172 27.0465H23.0507C23.695 27.0465 24.2174 27.5689 24.2174 28.2132V29.4407C24.2174 29.5931 24.1875 29.7441 24.1295 29.8849L22.3244 34.2686C22.2344 34.4872 22.0214 34.6299 21.785 34.6299H15.4674C15.1452 34.6299 14.884 34.3687 14.884 34.0465V27.2882C14.884 27.1334 14.9455 26.9851 15.0549 26.8757Z" fill="white"/>
</g>
<path opacity="0.5" d="M30.4321 27.9329C30.6561 27.8862 30.8708 27.8535 31.0761 27.8349C31.2814 27.8115 31.4798 27.7999 31.6711 27.7999C32.2031 27.7999 32.6721 27.8792 33.0781 28.0379C33.4841 28.1965 33.8248 28.4159 34.1001 28.6959C34.3754 28.9759 34.5831 29.3049 34.7231 29.6829C34.8631 30.0562 34.9331 30.4599 34.9331 30.8939C34.9331 31.4305 34.8374 31.9205 34.6461 32.3639C34.4594 32.8072 34.1981 33.1875 33.8621 33.5049C33.5261 33.8175 33.1271 34.0602 32.6651 34.2329C32.2078 34.4055 31.7084 34.4919 31.1671 34.4919C30.8498 34.4919 30.5488 34.4592 30.2641 34.3939C29.9794 34.3285 29.7111 34.2422 29.4591 34.1349C29.2118 34.0229 28.9808 33.8969 28.7661 33.7569C28.5561 33.6122 28.3671 33.4605 28.1991 33.3019L28.7311 32.5669C28.8431 32.4082 28.9901 32.3289 29.1721 32.3289C29.2888 32.3289 29.4078 32.3662 29.5291 32.4409C29.6504 32.5155 29.7881 32.5972 29.9421 32.6859C30.1008 32.7745 30.2851 32.8562 30.4951 32.9309C30.7098 33.0055 30.9664 33.0429 31.2651 33.0429C31.5824 33.0429 31.8624 32.9915 32.1051 32.8889C32.3478 32.7862 32.5484 32.6439 32.7071 32.4619C32.8704 32.2752 32.9918 32.0559 33.0711 31.8039C33.1551 31.5472 33.1971 31.2695 33.1971 30.9709C33.1971 30.4202 33.0361 29.9909 32.7141 29.6829C32.3968 29.3702 31.9254 29.2139 31.3001 29.2139C30.8194 29.2139 30.3271 29.3025 29.8231 29.4799L28.7451 29.1719L29.5851 24.2579H34.5831V24.9929C34.5831 25.2402 34.5061 25.4409 34.3521 25.5949C34.1981 25.7489 33.9368 25.8259 33.5681 25.8259H30.7891L30.4321 27.9329Z" fill="white"/>
<defs>
<clipPath id="clip0_2475_75">
<rect width="14" height="14" fill="white" transform="translate(10.8 22.3799)"/>
</clipPath>
</defs>
</svg>
