<svg width="632" height="24" viewBox="0 0 632 24" fill="none" xmlns="http://www.w3.org/2000/svg">
<path fill-rule="evenodd" clip-rule="evenodd" d="M12.8139 21.0002L10.7021 21.8081L9.08567 20.3151L6.79994 20.3149L5.925 18.3642L3.81334 17.5559L3.81311 15.4444L2.19702 13.9511L3.07151 12.0002L2.19702 10.0493L3.81311 8.55608L3.81334 6.44453L5.925 5.63627L6.79994 3.68553L9.08567 3.68531L10.7021 2.19238L12.8139 3.00023L14.9258 2.19238L16.5423 3.68531L18.8279 3.68553L19.7029 5.63627L21.8145 6.44453L21.8147 8.55608L23.4309 10.0493L22.5564 12.0002L23.4309 13.9511L21.8147 15.4444L21.8145 17.5559L19.7029 18.3642L18.8279 20.3149L16.5423 20.3151L14.9258 21.8081L12.8139 21.0002Z" fill="#F0F0F5" stroke="#2D2D32" stroke-linecap="round" stroke-linejoin="round"/>
<path d="M8.4423 12.2123C8.16418 11.9584 7.71326 11.9584 7.43515 12.2123C7.15703 12.4662 7.15703 12.8778 7.43515 13.1317L10.7586 16.1658C11.0367 16.4197 11.4876 16.4197 11.7657 16.1658L18.4127 10.0977C18.6907 9.84377 18.6907 9.43212 18.4127 9.17822C18.1345 8.92432 17.6836 8.92432 17.4055 9.17822L11.2622 14.7866L8.4423 12.2123Z" fill="#2D2D32" stroke="#2D2D32" stroke-width="0.506465"/>
<path d="M63.1478 12.256C63.5531 12.32 63.9211 12.4853 64.2518 12.752C64.5931 13.0187 64.8598 13.3493 65.0518 13.744C65.2544 14.1387 65.3558 14.56 65.3558 15.008C65.3558 15.5733 65.2118 16.0853 64.9238 16.544C64.6358 16.992 64.2144 17.3493 63.6598 17.616C63.1158 17.872 62.4704 18 61.7238 18H57.5638V6.848H61.5638C62.3211 6.848 62.9664 6.976 63.4998 7.232C64.0331 7.47733 64.4331 7.81333 64.6998 8.24C64.9664 8.66667 65.0998 9.14667 65.0998 9.68C65.0998 10.3413 64.9184 10.8907 64.5558 11.328C64.2038 11.7547 63.7344 12.064 63.1478 12.256ZM59.0198 11.664H61.4678C62.1504 11.664 62.6784 11.504 63.0518 11.184C63.4251 10.864 63.6118 10.4213 63.6118 9.856C63.6118 9.29067 63.4251 8.848 63.0518 8.528C62.6784 8.208 62.1398 8.048 61.4358 8.048H59.0198V11.664ZM61.5958 16.8C62.3211 16.8 62.8864 16.6293 63.2918 16.288C63.6971 15.9467 63.8998 15.472 63.8998 14.864C63.8998 14.2453 63.6864 13.76 63.2598 13.408C62.8331 13.0453 62.2624 12.864 61.5478 12.864H59.0198V16.8H61.5958ZM71.2003 18.144C70.3789 18.144 69.6323 17.9573 68.9603 17.584C68.2989 17.2107 67.7763 16.6827 67.3923 16C67.0189 15.3067 66.8323 14.5067 66.8323 13.6C66.8323 12.704 67.0243 11.9147 67.4083 11.232C67.8029 10.5387 68.3363 10.0107 69.0083 9.648C69.6803 9.27467 70.4323 9.088 71.2643 9.088C72.0963 9.088 72.8483 9.27467 73.5203 9.648C74.1923 10.0107 74.7203 10.5333 75.1043 11.216C75.4989 11.8987 75.6963 12.6933 75.6963 13.6C75.6963 14.5067 75.4936 15.3067 75.0883 16C74.6936 16.6827 74.1549 17.2107 73.4723 17.584C72.7896 17.9573 72.0323 18.144 71.2003 18.144ZM71.2003 16.864C71.7229 16.864 72.2136 16.7413 72.6723 16.496C73.1309 16.2507 73.4989 15.8827 73.7763 15.392C74.0643 14.9013 74.2083 14.304 74.2083 13.6C74.2083 12.896 74.0696 12.2987 73.7923 11.808C73.5149 11.3173 73.1523 10.9547 72.7043 10.72C72.2563 10.4747 71.7709 10.352 71.2483 10.352C70.7149 10.352 70.2243 10.4747 69.7763 10.72C69.3389 10.9547 68.9869 11.3173 68.7203 11.808C68.4536 12.2987 68.3203 12.896 68.3203 13.6C68.3203 14.3147 68.4483 14.9173 68.7043 15.408C68.9709 15.8987 69.3229 16.2667 69.7603 16.512C70.1976 16.7467 70.6776 16.864 71.2003 16.864ZM81.4346 18.144C80.6133 18.144 79.8666 17.9573 79.1946 17.584C78.5333 17.2107 78.0106 16.6827 77.6266 16C77.2533 15.3067 77.0666 14.5067 77.0666 13.6C77.0666 12.704 77.2586 11.9147 77.6426 11.232C78.0373 10.5387 78.5706 10.0107 79.2426 9.648C79.9146 9.27467 80.6666 9.088 81.4986 9.088C82.3306 9.088 83.0826 9.27467 83.7546 9.648C84.4266 10.0107 84.9546 10.5333 85.3386 11.216C85.7333 11.8987 85.9306 12.6933 85.9306 13.6C85.9306 14.5067 85.728 15.3067 85.3226 16C84.928 16.6827 84.3893 17.2107 83.7066 17.584C83.024 17.9573 82.2666 18.144 81.4346 18.144ZM81.4346 16.864C81.9573 16.864 82.448 16.7413 82.9066 16.496C83.3653 16.2507 83.7333 15.8827 84.0106 15.392C84.2986 14.9013 84.4426 14.304 84.4426 13.6C84.4426 12.896 84.304 12.2987 84.0266 11.808C83.7493 11.3173 83.3866 10.9547 82.9386 10.72C82.4906 10.4747 82.0053 10.352 81.4826 10.352C80.9493 10.352 80.4586 10.4747 80.0106 10.72C79.5733 10.9547 79.2213 11.3173 78.9546 11.808C78.688 12.2987 78.5546 12.896 78.5546 13.6C78.5546 14.3147 78.6826 14.9173 78.9386 15.408C79.2053 15.8987 79.5573 16.2667 79.9946 16.512C80.432 16.7467 80.912 16.864 81.4346 16.864ZM92.741 18L89.301 14.128V18H87.845V6.16H89.301V13.12L92.677 9.232H94.709L90.581 13.6L94.725 18H92.741ZM99.801 13.584C99.801 12.688 99.9823 11.904 100.345 11.232C100.708 10.5493 101.204 10.0213 101.833 9.648C102.473 9.27467 103.182 9.088 103.961 9.088C104.729 9.088 105.396 9.25333 105.961 9.584C106.526 9.91467 106.948 10.3307 107.225 10.832V9.232H108.697V18H107.225V16.368C106.937 16.88 106.505 17.3067 105.929 17.648C105.364 17.9787 104.702 18.144 103.945 18.144C103.166 18.144 102.462 17.952 101.833 17.568C101.204 17.184 100.708 16.6453 100.345 15.952C99.9823 15.2587 99.801 14.4693 99.801 13.584ZM107.225 13.6C107.225 12.9387 107.092 12.3627 106.825 11.872C106.558 11.3813 106.196 11.008 105.737 10.752C105.289 10.4853 104.793 10.352 104.249 10.352C103.705 10.352 103.209 10.48 102.761 10.736C102.313 10.992 101.956 11.3653 101.689 11.856C101.422 12.3467 101.289 12.9227 101.289 13.584C101.289 14.256 101.422 14.8427 101.689 15.344C101.956 15.8347 102.313 16.2133 102.761 16.48C103.209 16.736 103.705 16.864 104.249 16.864C104.793 16.864 105.289 16.736 105.737 16.48C106.196 16.2133 106.558 15.8347 106.825 15.344C107.092 14.8427 107.225 14.2613 107.225 13.6ZM112.614 10.848C112.902 10.3467 113.328 9.93067 113.894 9.6C114.47 9.25867 115.136 9.088 115.894 9.088C116.672 9.088 117.376 9.27467 118.006 9.648C118.646 10.0213 119.147 10.5493 119.51 11.232C119.872 11.904 120.054 12.688 120.054 13.584C120.054 14.4693 119.872 15.2587 119.51 15.952C119.147 16.6453 118.646 17.184 118.006 17.568C117.376 17.952 116.672 18.144 115.894 18.144C115.147 18.144 114.486 17.9787 113.91 17.648C113.344 17.3067 112.912 16.8853 112.614 16.384V22.16H111.158V9.232H112.614V10.848ZM118.566 13.584C118.566 12.9227 118.432 12.3467 118.166 11.856C117.899 11.3653 117.536 10.992 117.078 10.736C116.63 10.48 116.134 10.352 115.59 10.352C115.056 10.352 114.56 10.4853 114.102 10.752C113.654 11.008 113.291 11.3867 113.014 11.888C112.747 12.3787 112.614 12.9493 112.614 13.6C112.614 14.2613 112.747 14.8427 113.014 15.344C113.291 15.8347 113.654 16.2133 114.102 16.48C114.56 16.736 115.056 16.864 115.59 16.864C116.134 16.864 116.63 16.736 117.078 16.48C117.536 16.2133 117.899 15.8347 118.166 15.344C118.432 14.8427 118.566 14.256 118.566 13.584ZM123.426 10.848C123.714 10.3467 124.141 9.93067 124.706 9.6C125.282 9.25867 125.949 9.088 126.706 9.088C127.485 9.088 128.189 9.27467 128.818 9.648C129.458 10.0213 129.959 10.5493 130.322 11.232C130.685 11.904 130.866 12.688 130.866 13.584C130.866 14.4693 130.685 15.2587 130.322 15.952C129.959 16.6453 129.458 17.184 128.818 17.568C128.189 17.952 127.485 18.144 126.706 18.144C125.959 18.144 125.298 17.9787 124.722 17.648C124.157 17.3067 123.725 16.8853 123.426 16.384V22.16H121.97V9.232H123.426V10.848ZM129.378 13.584C129.378 12.9227 129.245 12.3467 128.978 11.856C128.711 11.3653 128.349 10.992 127.89 10.736C127.442 10.48 126.946 10.352 126.402 10.352C125.869 10.352 125.373 10.4853 124.914 10.752C124.466 11.008 124.103 11.3867 123.826 11.888C123.559 12.3787 123.426 12.9493 123.426 13.6C123.426 14.2613 123.559 14.8427 123.826 15.344C124.103 15.8347 124.466 16.2133 124.914 16.48C125.373 16.736 125.869 16.864 126.402 16.864C126.946 16.864 127.442 16.736 127.89 16.48C128.349 16.2133 128.711 15.8347 128.978 15.344C129.245 14.8427 129.378 14.256 129.378 13.584ZM136.607 18.144C135.785 18.144 135.039 17.9573 134.367 17.584C133.705 17.2107 133.183 16.6827 132.799 16C132.425 15.3067 132.239 14.5067 132.239 13.6C132.239 12.704 132.431 11.9147 132.815 11.232C133.209 10.5387 133.743 10.0107 134.415 9.648C135.087 9.27467 135.839 9.088 136.671 9.088C137.503 9.088 138.255 9.27467 138.927 9.648C139.599 10.0107 140.127 10.5333 140.511 11.216C140.905 11.8987 141.103 12.6933 141.103 13.6C141.103 14.5067 140.9 15.3067 140.495 16C140.1 16.6827 139.561 17.2107 138.879 17.584C138.196 17.9573 137.439 18.144 136.607 18.144ZM136.607 16.864C137.129 16.864 137.62 16.7413 138.079 16.496C138.537 16.2507 138.905 15.8827 139.183 15.392C139.471 14.9013 139.615 14.304 139.615 13.6C139.615 12.896 139.476 12.2987 139.199 11.808C138.921 11.3173 138.559 10.9547 138.111 10.72C137.663 10.4747 137.177 10.352 136.655 10.352C136.121 10.352 135.631 10.4747 135.183 10.72C134.745 10.9547 134.393 11.3173 134.127 11.808C133.86 12.2987 133.727 12.896 133.727 13.6C133.727 14.3147 133.855 14.9173 134.111 15.408C134.377 15.8987 134.729 16.2667 135.167 16.512C135.604 16.7467 136.084 16.864 136.607 16.864ZM143.769 7.808C143.492 7.808 143.257 7.712 143.065 7.52C142.873 7.328 142.777 7.09333 142.777 6.816C142.777 6.53867 142.873 6.304 143.065 6.112C143.257 5.92 143.492 5.824 143.769 5.824C144.036 5.824 144.26 5.92 144.441 6.112C144.633 6.304 144.729 6.53867 144.729 6.816C144.729 7.09333 144.633 7.328 144.441 7.52C144.26 7.712 144.036 7.808 143.769 7.808ZM144.473 9.232V18H143.017V9.232H144.473ZM151.226 9.072C152.293 9.072 153.157 9.39733 153.818 10.048C154.48 10.688 154.81 11.616 154.81 12.832V18H153.37V13.04C153.37 12.1653 153.152 11.4987 152.714 11.04C152.277 10.5707 151.68 10.336 150.922 10.336C150.154 10.336 149.541 10.576 149.082 11.056C148.634 11.536 148.41 12.2347 148.41 13.152V18H146.954V9.232H148.41V10.48C148.698 10.032 149.088 9.68533 149.578 9.44C150.08 9.19467 150.629 9.072 151.226 9.072ZM158.965 10.432V15.6C158.965 16.0267 159.055 16.3307 159.237 16.512C159.418 16.6827 159.733 16.768 160.181 16.768H161.253V18H159.941C159.13 18 158.522 17.8133 158.117 17.44C157.711 17.0667 157.509 16.4533 157.509 15.6V10.432H156.373V9.232H157.509V7.024H158.965V9.232H161.253V10.432H158.965ZM173.561 9.072C174.244 9.072 174.852 9.216 175.385 9.504C175.918 9.78133 176.34 10.2027 176.649 10.768C176.958 11.3333 177.113 12.0213 177.113 12.832V18H175.673V13.04C175.673 12.1653 175.454 11.4987 175.017 11.04C174.59 10.5707 174.009 10.336 173.273 10.336C172.516 10.336 171.913 10.5813 171.465 11.072C171.017 11.552 170.793 12.2507 170.793 13.168V18H169.353V13.04C169.353 12.1653 169.134 11.4987 168.697 11.04C168.27 10.5707 167.689 10.336 166.953 10.336C166.196 10.336 165.593 10.5813 165.145 11.072C164.697 11.552 164.473 12.2507 164.473 13.168V18H163.017V9.232H164.473V10.496C164.761 10.0373 165.145 9.68533 165.625 9.44C166.116 9.19467 166.654 9.072 167.241 9.072C167.977 9.072 168.628 9.23733 169.193 9.568C169.758 9.89867 170.18 10.384 170.457 11.024C170.702 10.4053 171.108 9.92533 171.673 9.584C172.238 9.24267 172.868 9.072 173.561 9.072ZM187.501 13.28C187.501 13.5573 187.485 13.8507 187.453 14.16H180.445C180.499 15.024 180.792 15.7013 181.325 16.192C181.869 16.672 182.525 16.912 183.293 16.912C183.923 16.912 184.445 16.768 184.861 16.48C185.288 16.1813 185.587 15.7867 185.757 15.296H187.325C187.091 16.1387 186.621 16.8267 185.917 17.36C185.213 17.8827 184.339 18.144 183.293 18.144C182.461 18.144 181.715 17.9573 181.053 17.584C180.403 17.2107 179.891 16.6827 179.517 16C179.144 15.3067 178.957 14.5067 178.957 13.6C178.957 12.6933 179.139 11.8987 179.501 11.216C179.864 10.5333 180.371 10.0107 181.021 9.648C181.683 9.27467 182.44 9.088 183.293 9.088C184.125 9.088 184.861 9.26933 185.501 9.632C186.141 9.99467 186.632 10.496 186.973 11.136C187.325 11.7653 187.501 12.48 187.501 13.28ZM185.997 12.976C185.997 12.4213 185.875 11.9467 185.629 11.552C185.384 11.1467 185.048 10.8427 184.621 10.64C184.205 10.4267 183.741 10.32 183.229 10.32C182.493 10.32 181.864 10.5547 181.341 11.024C180.829 11.4933 180.536 12.144 180.461 12.976H185.997ZM193.695 9.072C194.762 9.072 195.626 9.39733 196.287 10.048C196.948 10.688 197.279 11.616 197.279 12.832V18H195.839V13.04C195.839 12.1653 195.62 11.4987 195.183 11.04C194.746 10.5707 194.148 10.336 193.391 10.336C192.623 10.336 192.01 10.576 191.551 11.056C191.103 11.536 190.879 12.2347 190.879 13.152V18H189.423V9.232H190.879V10.48C191.167 10.032 191.556 9.68533 192.047 9.44C192.548 9.19467 193.098 9.072 193.695 9.072ZM201.434 10.432V15.6C201.434 16.0267 201.524 16.3307 201.706 16.512C201.887 16.6827 202.202 16.768 202.65 16.768H203.722V18H202.41C201.599 18 200.991 17.8133 200.586 17.44C200.18 17.0667 199.978 16.4533 199.978 15.6V10.432H198.842V9.232H199.978V7.024H201.434V9.232H203.722V10.432H201.434ZM208.59 18.144C207.918 18.144 207.315 18.032 206.782 17.808C206.248 17.5733 205.827 17.2533 205.518 16.848C205.208 16.432 205.038 15.9573 205.006 15.424H206.51C206.552 15.8613 206.755 16.2187 207.118 16.496C207.491 16.7733 207.976 16.912 208.574 16.912C209.128 16.912 209.566 16.7893 209.886 16.544C210.206 16.2987 210.366 15.9893 210.366 15.616C210.366 15.232 210.195 14.9493 209.854 14.768C209.512 14.576 208.984 14.3893 208.27 14.208C207.619 14.0373 207.086 13.8667 206.67 13.696C206.264 13.5147 205.912 13.2533 205.614 12.912C205.326 12.56 205.182 12.1013 205.182 11.536C205.182 11.088 205.315 10.6773 205.582 10.304C205.848 9.93067 206.227 9.63733 206.718 9.424C207.208 9.2 207.768 9.088 208.398 9.088C209.368 9.088 210.152 9.33333 210.75 9.824C211.347 10.3147 211.667 10.9867 211.71 11.84H210.254C210.222 11.3813 210.035 11.0133 209.694 10.736C209.363 10.4587 208.915 10.32 208.35 10.32C207.827 10.32 207.411 10.432 207.102 10.656C206.792 10.88 206.638 11.1733 206.638 11.536C206.638 11.824 206.728 12.064 206.91 12.256C207.102 12.4373 207.336 12.5867 207.614 12.704C207.902 12.8107 208.296 12.9333 208.798 13.072C209.427 13.2427 209.939 13.4133 210.334 13.584C210.728 13.744 211.064 13.9893 211.342 14.32C211.63 14.6507 211.779 15.0827 211.79 15.616C211.79 16.096 211.656 16.528 211.39 16.912C211.123 17.296 210.744 17.6 210.254 17.824C209.774 18.0373 209.219 18.144 208.59 18.144ZM229.791 9.232L227.055 18H225.551L223.439 11.04L221.327 18H219.823L217.071 9.232H218.559L220.575 16.592L222.751 9.232H224.239L226.367 16.608L228.351 9.232H229.791ZM231.988 7.808C231.71 7.808 231.476 7.712 231.284 7.52C231.092 7.328 230.996 7.09333 230.996 6.816C230.996 6.53867 231.092 6.304 231.284 6.112C231.476 5.92 231.71 5.824 231.988 5.824C232.254 5.824 232.478 5.92 232.66 6.112C232.852 6.304 232.948 6.53867 232.948 6.816C232.948 7.09333 232.852 7.328 232.66 7.52C232.478 7.712 232.254 7.808 231.988 7.808ZM232.692 9.232V18H231.236V9.232H232.692ZM236.949 10.432V15.6C236.949 16.0267 237.04 16.3307 237.221 16.512C237.402 16.6827 237.717 16.768 238.165 16.768H239.237V18H237.925C237.114 18 236.506 17.8133 236.101 17.44C235.696 17.0667 235.493 16.4533 235.493 15.6V10.432H234.357V9.232H235.493V7.024H236.949V9.232H239.237V10.432H236.949ZM245.353 9.072C246.015 9.072 246.612 9.216 247.145 9.504C247.679 9.78133 248.095 10.2027 248.393 10.768C248.703 11.3333 248.857 12.0213 248.857 12.832V18H247.417V13.04C247.417 12.1653 247.199 11.4987 246.761 11.04C246.324 10.5707 245.727 10.336 244.969 10.336C244.201 10.336 243.588 10.576 243.129 11.056C242.681 11.536 242.457 12.2347 242.457 13.152V18H241.001V6.16H242.457V10.48C242.745 10.032 243.14 9.68533 243.641 9.44C244.153 9.19467 244.724 9.072 245.353 9.072ZM266.045 9.072C266.728 9.072 267.336 9.216 267.869 9.504C268.403 9.78133 268.824 10.2027 269.133 10.768C269.443 11.3333 269.597 12.0213 269.597 12.832V18H268.157V13.04C268.157 12.1653 267.939 11.4987 267.501 11.04C267.075 10.5707 266.493 10.336 265.757 10.336C265 10.336 264.397 10.5813 263.949 11.072C263.501 11.552 263.277 12.2507 263.277 13.168V18H261.837V13.04C261.837 12.1653 261.619 11.4987 261.181 11.04C260.755 10.5707 260.173 10.336 259.437 10.336C258.68 10.336 258.077 10.5813 257.629 11.072C257.181 11.552 256.957 12.2507 256.957 13.168V18H255.501V9.232H256.957V10.496C257.245 10.0373 257.629 9.68533 258.109 9.44C258.6 9.19467 259.139 9.072 259.725 9.072C260.461 9.072 261.112 9.23733 261.677 9.568C262.243 9.89867 262.664 10.384 262.941 11.024C263.187 10.4053 263.592 9.92533 264.157 9.584C264.723 9.24267 265.352 9.072 266.045 9.072ZM272.738 7.808C272.46 7.808 272.226 7.712 272.034 7.52C271.842 7.328 271.746 7.09333 271.746 6.816C271.746 6.53867 271.842 6.304 272.034 6.112C272.226 5.92 272.46 5.824 272.738 5.824C273.004 5.824 273.228 5.92 273.41 6.112C273.602 6.304 273.698 6.53867 273.698 6.816C273.698 7.09333 273.602 7.328 273.41 7.52C273.228 7.712 273.004 7.808 272.738 7.808ZM273.442 9.232V18H271.986V9.232H273.442ZM280.195 9.072C281.262 9.072 282.126 9.39733 282.787 10.048C283.448 10.688 283.779 11.616 283.779 12.832V18H282.339V13.04C282.339 12.1653 282.12 11.4987 281.683 11.04C281.246 10.5707 280.648 10.336 279.891 10.336C279.123 10.336 278.51 10.576 278.051 11.056C277.603 11.536 277.379 12.2347 277.379 13.152V18H275.923V9.232H277.379V10.48C277.667 10.032 278.056 9.68533 278.547 9.44C279.048 9.19467 279.598 9.072 280.195 9.072ZM286.91 7.808C286.632 7.808 286.398 7.712 286.206 7.52C286.014 7.328 285.918 7.09333 285.918 6.816C285.918 6.53867 286.014 6.304 286.206 6.112C286.398 5.92 286.632 5.824 286.91 5.824C287.176 5.824 287.4 5.92 287.582 6.112C287.774 6.304 287.87 6.53867 287.87 6.816C287.87 7.09333 287.774 7.328 287.582 7.52C287.4 7.712 287.176 7.808 286.91 7.808ZM287.614 9.232V18H286.158V9.232H287.614ZM300.639 9.072C301.322 9.072 301.93 9.216 302.463 9.504C302.996 9.78133 303.418 10.2027 303.727 10.768C304.036 11.3333 304.191 12.0213 304.191 12.832V18H302.751V13.04C302.751 12.1653 302.532 11.4987 302.095 11.04C301.668 10.5707 301.087 10.336 300.351 10.336C299.594 10.336 298.991 10.5813 298.543 11.072C298.095 11.552 297.871 12.2507 297.871 13.168V18H296.431V13.04C296.431 12.1653 296.212 11.4987 295.775 11.04C295.348 10.5707 294.767 10.336 294.031 10.336C293.274 10.336 292.671 10.5813 292.223 11.072C291.775 11.552 291.551 12.2507 291.551 13.168V18H290.095V9.232H291.551V10.496C291.839 10.0373 292.223 9.68533 292.703 9.44C293.194 9.19467 293.732 9.072 294.319 9.072C295.055 9.072 295.706 9.23733 296.271 9.568C296.836 9.89867 297.258 10.384 297.535 11.024C297.78 10.4053 298.186 9.92533 298.751 9.584C299.316 9.24267 299.946 9.072 300.639 9.072ZM314.355 9.232V18H312.899V16.704C312.622 17.152 312.233 17.504 311.731 17.76C311.241 18.0053 310.697 18.128 310.099 18.128C309.417 18.128 308.803 17.9893 308.259 17.712C307.715 17.424 307.283 16.9973 306.963 16.432C306.654 15.8667 306.499 15.1787 306.499 14.368V9.232H307.939V14.176C307.939 15.04 308.158 15.7067 308.595 16.176C309.033 16.6347 309.63 16.864 310.387 16.864C311.166 16.864 311.779 16.624 312.227 16.144C312.675 15.664 312.899 14.9653 312.899 14.048V9.232H314.355ZM327.358 9.072C328.04 9.072 328.648 9.216 329.182 9.504C329.715 9.78133 330.136 10.2027 330.446 10.768C330.755 11.3333 330.91 12.0213 330.91 12.832V18H329.47V13.04C329.47 12.1653 329.251 11.4987 328.814 11.04C328.387 10.5707 327.806 10.336 327.07 10.336C326.312 10.336 325.71 10.5813 325.262 11.072C324.814 11.552 324.59 12.2507 324.59 13.168V18H323.15V13.04C323.15 12.1653 322.931 11.4987 322.494 11.04C322.067 10.5707 321.486 10.336 320.75 10.336C319.992 10.336 319.39 10.5813 318.942 11.072C318.494 11.552 318.27 12.2507 318.27 13.168V18H316.814V9.232H318.27V10.496C318.558 10.0373 318.942 9.68533 319.422 9.44C319.912 9.19467 320.451 9.072 321.038 9.072C321.774 9.072 322.424 9.23733 322.99 9.568C323.555 9.89867 323.976 10.384 324.254 11.024C324.499 10.4053 324.904 9.92533 325.47 9.584C326.035 9.24267 326.664 9.072 327.358 9.072ZM349.244 9.232L346.508 18H345.004L342.892 11.04L340.78 18H339.276L336.524 9.232H338.012L340.028 16.592L342.204 9.232H343.692L345.82 16.608L347.804 9.232H349.244ZM350.145 13.584C350.145 12.688 350.326 11.904 350.689 11.232C351.051 10.5493 351.547 10.0213 352.177 9.648C352.817 9.27467 353.526 9.088 354.305 9.088C355.073 9.088 355.739 9.25333 356.305 9.584C356.87 9.91467 357.291 10.3307 357.569 10.832V9.232H359.041V18H357.569V16.368C357.281 16.88 356.849 17.3067 356.273 17.648C355.707 17.9787 355.046 18.144 354.289 18.144C353.51 18.144 352.806 17.952 352.177 17.568C351.547 17.184 351.051 16.6453 350.689 15.952C350.326 15.2587 350.145 14.4693 350.145 13.584ZM357.569 13.6C357.569 12.9387 357.435 12.3627 357.169 11.872C356.902 11.3813 356.539 11.008 356.081 10.752C355.633 10.4853 355.137 10.352 354.593 10.352C354.049 10.352 353.553 10.48 353.105 10.736C352.657 10.992 352.299 11.3653 352.033 11.856C351.766 12.3467 351.633 12.9227 351.633 13.584C351.633 14.256 351.766 14.8427 352.033 15.344C352.299 15.8347 352.657 16.2133 353.105 16.48C353.553 16.736 354.049 16.864 354.593 16.864C355.137 16.864 355.633 16.736 356.081 16.48C356.539 16.2133 356.902 15.8347 357.169 15.344C357.435 14.8427 357.569 14.2613 357.569 13.6ZM362.253 7.808C361.976 7.808 361.741 7.712 361.549 7.52C361.357 7.328 361.261 7.09333 361.261 6.816C361.261 6.53867 361.357 6.304 361.549 6.112C361.741 5.92 361.976 5.824 362.253 5.824C362.52 5.824 362.744 5.92 362.925 6.112C363.117 6.304 363.213 6.53867 363.213 6.816C363.213 7.09333 363.117 7.328 362.925 7.52C362.744 7.712 362.52 7.808 362.253 7.808ZM362.957 9.232V18H361.501V9.232H362.957ZM367.215 10.432V15.6C367.215 16.0267 367.305 16.3307 367.487 16.512C367.668 16.6827 367.983 16.768 368.431 16.768H369.503V18H368.191C367.38 18 366.772 17.8133 366.367 17.44C365.961 17.0667 365.759 16.4533 365.759 15.6V10.432H364.623V9.232H365.759V7.024H367.215V9.232H369.503V10.432H367.215ZM377.347 11.52V12.752H370.963V11.52H377.347ZM381.855 10.432V15.6C381.855 16.0267 381.946 16.3307 382.127 16.512C382.309 16.6827 382.623 16.768 383.071 16.768H384.143V18H382.831C382.021 18 381.413 17.8133 381.007 17.44C380.602 17.0667 380.399 16.4533 380.399 15.6V10.432H379.263V9.232H380.399V7.024H381.855V9.232H384.143V10.432H381.855ZM386.66 7.808C386.382 7.808 386.148 7.712 385.956 7.52C385.764 7.328 385.668 7.09333 385.668 6.816C385.668 6.53867 385.764 6.304 385.956 6.112C386.148 5.92 386.382 5.824 386.66 5.824C386.926 5.824 387.15 5.92 387.332 6.112C387.524 6.304 387.62 6.53867 387.62 6.816C387.62 7.09333 387.524 7.328 387.332 7.52C387.15 7.712 386.926 7.808 386.66 7.808ZM387.364 9.232V18H385.908V9.232H387.364ZM400.389 9.072C401.072 9.072 401.68 9.216 402.213 9.504C402.746 9.78133 403.168 10.2027 403.477 10.768C403.786 11.3333 403.941 12.0213 403.941 12.832V18H402.501V13.04C402.501 12.1653 402.282 11.4987 401.845 11.04C401.418 10.5707 400.837 10.336 400.101 10.336C399.344 10.336 398.741 10.5813 398.293 11.072C397.845 11.552 397.621 12.2507 397.621 13.168V18H396.181V13.04C396.181 12.1653 395.962 11.4987 395.525 11.04C395.098 10.5707 394.517 10.336 393.781 10.336C393.024 10.336 392.421 10.5813 391.973 11.072C391.525 11.552 391.301 12.2507 391.301 13.168V18H389.845V9.232H391.301V10.496C391.589 10.0373 391.973 9.68533 392.453 9.44C392.944 9.19467 393.482 9.072 394.069 9.072C394.805 9.072 395.456 9.23733 396.021 9.568C396.586 9.89867 397.008 10.384 397.285 11.024C397.53 10.4053 397.936 9.92533 398.501 9.584C399.066 9.24267 399.696 9.072 400.389 9.072ZM414.329 13.28C414.329 13.5573 414.313 13.8507 414.281 14.16H407.273C407.327 15.024 407.62 15.7013 408.153 16.192C408.697 16.672 409.353 16.912 410.121 16.912C410.751 16.912 411.273 16.768 411.689 16.48C412.116 16.1813 412.415 15.7867 412.585 15.296H414.153C413.919 16.1387 413.449 16.8267 412.745 17.36C412.041 17.8827 411.167 18.144 410.121 18.144C409.289 18.144 408.543 17.9573 407.881 17.584C407.231 17.2107 406.719 16.6827 406.345 16C405.972 15.3067 405.785 14.5067 405.785 13.6C405.785 12.6933 405.967 11.8987 406.329 11.216C406.692 10.5333 407.199 10.0107 407.849 9.648C408.511 9.27467 409.268 9.088 410.121 9.088C410.953 9.088 411.689 9.26933 412.329 9.632C412.969 9.99467 413.46 10.496 413.801 11.136C414.153 11.7653 414.329 12.48 414.329 13.28ZM412.825 12.976C412.825 12.4213 412.703 11.9467 412.457 11.552C412.212 11.1467 411.876 10.8427 411.449 10.64C411.033 10.4267 410.569 10.32 410.057 10.32C409.321 10.32 408.692 10.5547 408.169 11.024C407.657 11.4933 407.364 12.144 407.289 12.976H412.825ZM429.077 18L427.621 16.528C427.077 17.0933 426.496 17.5147 425.877 17.792C425.258 18.0587 424.56 18.192 423.781 18.192C423.013 18.192 422.33 18.0533 421.733 17.776C421.146 17.4987 420.688 17.104 420.357 16.592C420.037 16.08 419.877 15.4827 419.877 14.8C419.877 14.0213 420.096 13.3387 420.533 12.752C420.981 12.1547 421.637 11.6853 422.501 11.344C422.16 10.9387 421.914 10.5653 421.765 10.224C421.616 9.88267 421.541 9.50933 421.541 9.104C421.541 8.63467 421.658 8.21333 421.893 7.84C422.138 7.456 422.485 7.15733 422.933 6.944C423.381 6.73067 423.898 6.624 424.485 6.624C425.061 6.624 425.562 6.736 425.989 6.96C426.416 7.184 426.736 7.49867 426.949 7.904C427.162 8.29867 427.258 8.74133 427.237 9.232H425.781C425.792 8.79467 425.669 8.45333 425.413 8.208C425.157 7.952 424.826 7.824 424.421 7.824C423.994 7.824 423.648 7.94667 423.381 8.192C423.125 8.42667 422.997 8.73067 422.997 9.104C422.997 9.424 423.082 9.73333 423.253 10.032C423.434 10.3307 423.733 10.6987 424.149 11.136L427.477 14.48L427.765 14.032L428.853 12.208H430.421L429.109 14.48C428.928 14.8 428.714 15.136 428.469 15.488L430.981 18H429.077ZM423.781 16.944C424.357 16.944 424.874 16.832 425.333 16.608C425.802 16.384 426.245 16.0373 426.661 15.568L423.381 12.272C422.016 12.7947 421.333 13.6213 421.333 14.752C421.333 15.3813 421.557 15.904 422.005 16.32C422.464 16.736 423.056 16.944 423.781 16.944ZM439.875 16.656L442.595 9.232H444.147L440.707 18H439.011L435.571 9.232H437.139L439.875 16.656ZM453.579 13.28C453.579 13.5573 453.563 13.8507 453.531 14.16H446.523C446.577 15.024 446.87 15.7013 447.403 16.192C447.947 16.672 448.603 16.912 449.371 16.912C450.001 16.912 450.523 16.768 450.939 16.48C451.366 16.1813 451.665 15.7867 451.835 15.296H453.403C453.169 16.1387 452.699 16.8267 451.995 17.36C451.291 17.8827 450.417 18.144 449.371 18.144C448.539 18.144 447.793 17.9573 447.131 17.584C446.481 17.2107 445.969 16.6827 445.595 16C445.222 15.3067 445.035 14.5067 445.035 13.6C445.035 12.6933 445.217 11.8987 445.579 11.216C445.942 10.5333 446.449 10.0107 447.099 9.648C447.761 9.27467 448.518 9.088 449.371 9.088C450.203 9.088 450.939 9.26933 451.579 9.632C452.219 9.99467 452.71 10.496 453.051 11.136C453.403 11.7653 453.579 12.48 453.579 13.28ZM452.075 12.976C452.075 12.4213 451.953 11.9467 451.707 11.552C451.462 11.1467 451.126 10.8427 450.699 10.64C450.283 10.4267 449.819 10.32 449.307 10.32C448.571 10.32 447.942 10.5547 447.419 11.024C446.907 11.4933 446.614 12.144 446.539 12.976H452.075ZM456.957 10.656C457.213 10.1547 457.576 9.76533 458.045 9.488C458.525 9.21067 459.107 9.072 459.789 9.072V10.576H459.405C457.773 10.576 456.957 11.4613 456.957 13.232V18H455.501V9.232H456.957V10.656ZM462.222 7.808C461.945 7.808 461.71 7.712 461.518 7.52C461.326 7.328 461.23 7.09333 461.23 6.816C461.23 6.53867 461.326 6.304 461.518 6.112C461.71 5.92 461.945 5.824 462.222 5.824C462.489 5.824 462.713 5.92 462.894 6.112C463.086 6.304 463.182 6.53867 463.182 6.816C463.182 7.09333 463.086 7.328 462.894 7.52C462.713 7.712 462.489 7.808 462.222 7.808ZM462.926 9.232V18H461.47V9.232H462.926ZM468.976 10.432H467.136V18H465.68V10.432H464.544V9.232H465.68V8.608C465.68 7.62667 465.93 6.912 466.432 6.464C466.944 6.00533 467.76 5.776 468.88 5.776V6.992C468.24 6.992 467.786 7.12 467.52 7.376C467.264 7.62133 467.136 8.032 467.136 8.608V9.232H468.976V10.432ZM471.425 7.808C471.148 7.808 470.913 7.712 470.721 7.52C470.529 7.328 470.433 7.09333 470.433 6.816C470.433 6.53867 470.529 6.304 470.721 6.112C470.913 5.92 471.148 5.824 471.425 5.824C471.692 5.824 471.916 5.92 472.097 6.112C472.289 6.304 472.385 6.53867 472.385 6.816C472.385 7.09333 472.289 7.328 472.097 7.52C471.916 7.712 471.692 7.808 471.425 7.808ZM472.129 9.232V18H470.673V9.232H472.129ZM482.611 13.28C482.611 13.5573 482.595 13.8507 482.563 14.16H475.555C475.608 15.024 475.901 15.7013 476.435 16.192C476.979 16.672 477.635 16.912 478.403 16.912C479.032 16.912 479.555 16.768 479.971 16.48C480.397 16.1813 480.696 15.7867 480.867 15.296H482.435C482.2 16.1387 481.731 16.8267 481.027 17.36C480.323 17.8827 479.448 18.144 478.403 18.144C477.571 18.144 476.824 17.9573 476.163 17.584C475.512 17.2107 475 16.6827 474.627 16C474.253 15.3067 474.067 14.5067 474.067 13.6C474.067 12.6933 474.248 11.8987 474.611 11.216C474.973 10.5333 475.48 10.0107 476.131 9.648C476.792 9.27467 477.549 9.088 478.403 9.088C479.235 9.088 479.971 9.26933 480.611 9.632C481.251 9.99467 481.741 10.496 482.083 11.136C482.435 11.7653 482.611 12.48 482.611 13.28ZM481.107 12.976C481.107 12.4213 480.984 11.9467 480.739 11.552C480.493 11.1467 480.157 10.8427 479.731 10.64C479.315 10.4267 478.851 10.32 478.339 10.32C477.603 10.32 476.973 10.5547 476.451 11.024C475.939 11.4933 475.645 12.144 475.571 12.976H481.107ZM483.989 13.584C483.989 12.688 484.17 11.904 484.533 11.232C484.895 10.5493 485.391 10.0213 486.021 9.648C486.661 9.27467 487.375 9.088 488.165 9.088C488.847 9.088 489.482 9.248 490.069 9.568C490.655 9.87733 491.103 10.288 491.413 10.8V6.16H492.885V18H491.413V16.352C491.125 16.8747 490.698 17.3067 490.133 17.648C489.567 17.9787 488.906 18.144 488.149 18.144C487.37 18.144 486.661 17.952 486.021 17.568C485.391 17.184 484.895 16.6453 484.533 15.952C484.17 15.2587 483.989 14.4693 483.989 13.584ZM491.413 13.6C491.413 12.9387 491.279 12.3627 491.013 11.872C490.746 11.3813 490.383 11.008 489.925 10.752C489.477 10.4853 488.981 10.352 488.437 10.352C487.893 10.352 487.397 10.48 486.949 10.736C486.501 10.992 486.143 11.3653 485.877 11.856C485.61 12.3467 485.477 12.9227 485.477 13.584C485.477 14.256 485.61 14.8427 485.877 15.344C486.143 15.8347 486.501 16.2133 486.949 16.48C487.397 16.736 487.893 16.864 488.437 16.864C488.981 16.864 489.477 16.736 489.925 16.48C490.383 16.2133 490.746 15.8347 491.013 15.344C491.279 14.8427 491.413 14.2613 491.413 13.6ZM499.067 13.584C499.067 12.688 499.248 11.904 499.611 11.232C499.973 10.5493 500.469 10.0213 501.099 9.648C501.739 9.27467 502.453 9.088 503.243 9.088C503.925 9.088 504.56 9.248 505.147 9.568C505.733 9.87733 506.181 10.288 506.491 10.8V6.16H507.963V18H506.491V16.352C506.203 16.8747 505.776 17.3067 505.211 17.648C504.645 17.9787 503.984 18.144 503.227 18.144C502.448 18.144 501.739 17.952 501.099 17.568C500.469 17.184 499.973 16.6453 499.611 15.952C499.248 15.2587 499.067 14.4693 499.067 13.584ZM506.491 13.6C506.491 12.9387 506.357 12.3627 506.091 11.872C505.824 11.3813 505.461 11.008 505.003 10.752C504.555 10.4853 504.059 10.352 503.515 10.352C502.971 10.352 502.475 10.48 502.027 10.736C501.579 10.992 501.221 11.3653 500.955 11.856C500.688 12.3467 500.555 12.9227 500.555 13.584C500.555 14.256 500.688 14.8427 500.955 15.344C501.221 15.8347 501.579 16.2133 502.027 16.48C502.475 16.736 502.971 16.864 503.515 16.864C504.059 16.864 504.555 16.736 505.003 16.48C505.461 16.2133 505.824 15.8347 506.091 15.344C506.357 14.8427 506.491 14.2613 506.491 13.6ZM514.247 18.144C513.426 18.144 512.679 17.9573 512.007 17.584C511.346 17.2107 510.823 16.6827 510.439 16C510.066 15.3067 509.879 14.5067 509.879 13.6C509.879 12.704 510.071 11.9147 510.455 11.232C510.85 10.5387 511.383 10.0107 512.055 9.648C512.727 9.27467 513.479 9.088 514.311 9.088C515.143 9.088 515.895 9.27467 516.567 9.648C517.239 10.0107 517.767 10.5333 518.151 11.216C518.546 11.8987 518.743 12.6933 518.743 13.6C518.743 14.5067 518.54 15.3067 518.135 16C517.74 16.6827 517.202 17.2107 516.519 17.584C515.836 17.9573 515.079 18.144 514.247 18.144ZM514.247 16.864C514.77 16.864 515.26 16.7413 515.719 16.496C516.178 16.2507 516.546 15.8827 516.823 15.392C517.111 14.9013 517.255 14.304 517.255 13.6C517.255 12.896 517.116 12.2987 516.839 11.808C516.562 11.3173 516.199 10.9547 515.751 10.72C515.303 10.4747 514.818 10.352 514.295 10.352C513.762 10.352 513.271 10.4747 512.823 10.72C512.386 10.9547 512.034 11.3173 511.767 11.808C511.5 12.2987 511.367 12.896 511.367 13.6C511.367 14.3147 511.495 14.9173 511.751 15.408C512.018 15.8987 512.37 16.2667 512.807 16.512C513.244 16.7467 513.724 16.864 514.247 16.864ZM520.114 13.6C520.114 12.6933 520.295 11.904 520.658 11.232C521.02 10.5493 521.522 10.0213 522.162 9.648C522.812 9.27467 523.554 9.088 524.386 9.088C525.463 9.088 526.348 9.34933 527.042 9.872C527.746 10.3947 528.21 11.12 528.434 12.048H526.866C526.716 11.5147 526.423 11.0933 525.986 10.784C525.559 10.4747 525.026 10.32 524.386 10.32C523.554 10.32 522.882 10.608 522.37 11.184C521.858 11.7493 521.602 12.5547 521.602 13.6C521.602 14.656 521.858 15.472 522.37 16.048C522.882 16.624 523.554 16.912 524.386 16.912C525.026 16.912 525.559 16.7627 525.986 16.464C526.412 16.1653 526.706 15.7387 526.866 15.184H528.434C528.199 16.08 527.73 16.8 527.026 17.344C526.322 17.8773 525.442 18.144 524.386 18.144C523.554 18.144 522.812 17.9573 522.162 17.584C521.522 17.2107 521.02 16.6827 520.658 16C520.295 15.3173 520.114 14.5173 520.114 13.6ZM532.152 10.432V15.6C532.152 16.0267 532.243 16.3307 532.424 16.512C532.606 16.6827 532.92 16.768 533.368 16.768H534.44V18H533.128C532.318 18 531.71 17.8133 531.304 17.44C530.899 17.0667 530.696 16.4533 530.696 15.6V10.432H529.56V9.232H530.696V7.024H532.152V9.232H534.44V10.432H532.152ZM540.028 18.144C539.207 18.144 538.46 17.9573 537.788 17.584C537.127 17.2107 536.604 16.6827 536.22 16C535.847 15.3067 535.66 14.5067 535.66 13.6C535.66 12.704 535.852 11.9147 536.236 11.232C536.631 10.5387 537.164 10.0107 537.836 9.648C538.508 9.27467 539.26 9.088 540.092 9.088C540.924 9.088 541.676 9.27467 542.348 9.648C543.02 10.0107 543.548 10.5333 543.932 11.216C544.327 11.8987 544.524 12.6933 544.524 13.6C544.524 14.5067 544.322 15.3067 543.916 16C543.522 16.6827 542.983 17.2107 542.3 17.584C541.618 17.9573 540.86 18.144 540.028 18.144ZM540.028 16.864C540.551 16.864 541.042 16.7413 541.5 16.496C541.959 16.2507 542.327 15.8827 542.604 15.392C542.892 14.9013 543.036 14.304 543.036 13.6C543.036 12.896 542.898 12.2987 542.62 11.808C542.343 11.3173 541.98 10.9547 541.532 10.72C541.084 10.4747 540.599 10.352 540.076 10.352C539.543 10.352 539.052 10.4747 538.604 10.72C538.167 10.9547 537.815 11.3173 537.548 11.808C537.282 12.2987 537.148 12.896 537.148 13.6C537.148 14.3147 537.276 14.9173 537.532 15.408C537.799 15.8987 538.151 16.2667 538.588 16.512C539.026 16.7467 539.506 16.864 540.028 16.864ZM547.895 10.656C548.151 10.1547 548.513 9.76533 548.983 9.488C549.463 9.21067 550.044 9.072 550.727 9.072V10.576H550.343C548.711 10.576 547.895 11.4613 547.895 13.232V18H546.439V9.232H547.895V10.656ZM556.129 13.584C556.129 12.688 556.31 11.904 556.673 11.232C557.036 10.5493 557.532 10.0213 558.161 9.648C558.801 9.27467 559.516 9.088 560.305 9.088C560.988 9.088 561.622 9.248 562.209 9.568C562.796 9.87733 563.244 10.288 563.553 10.8V6.16H565.025V18H563.553V16.352C563.265 16.8747 562.838 17.3067 562.273 17.648C561.708 17.9787 561.046 18.144 560.289 18.144C559.51 18.144 558.801 17.952 558.161 17.568C557.532 17.184 557.036 16.6453 556.673 15.952C556.31 15.2587 556.129 14.4693 556.129 13.584ZM563.553 13.6C563.553 12.9387 563.42 12.3627 563.153 11.872C562.886 11.3813 562.524 11.008 562.065 10.752C561.617 10.4853 561.121 10.352 560.577 10.352C560.033 10.352 559.537 10.48 559.089 10.736C558.641 10.992 558.284 11.3653 558.017 11.856C557.75 12.3467 557.617 12.9227 557.617 13.584C557.617 14.256 557.75 14.8427 558.017 15.344C558.284 15.8347 558.641 16.2133 559.089 16.48C559.537 16.736 560.033 16.864 560.577 16.864C561.121 16.864 561.617 16.736 562.065 16.48C562.524 16.2133 562.886 15.8347 563.153 15.344C563.42 14.8427 563.553 14.2613 563.553 13.6ZM575.486 13.28C575.486 13.5573 575.47 13.8507 575.438 14.16H568.43C568.483 15.024 568.776 15.7013 569.31 16.192C569.854 16.672 570.51 16.912 571.278 16.912C571.907 16.912 572.43 16.768 572.846 16.48C573.272 16.1813 573.571 15.7867 573.742 15.296H575.31C575.075 16.1387 574.606 16.8267 573.902 17.36C573.198 17.8827 572.323 18.144 571.278 18.144C570.446 18.144 569.699 17.9573 569.038 17.584C568.387 17.2107 567.875 16.6827 567.502 16C567.128 15.3067 566.942 14.5067 566.942 13.6C566.942 12.6933 567.123 11.8987 567.486 11.216C567.848 10.5333 568.355 10.0107 569.006 9.648C569.667 9.27467 570.424 9.088 571.278 9.088C572.11 9.088 572.846 9.26933 573.486 9.632C574.126 9.99467 574.616 10.496 574.958 11.136C575.31 11.7653 575.486 12.48 575.486 13.28ZM573.982 12.976C573.982 12.4213 573.859 11.9467 573.614 11.552C573.368 11.1467 573.032 10.8427 572.606 10.64C572.19 10.4267 571.726 10.32 571.214 10.32C570.478 10.32 569.848 10.5547 569.326 11.024C568.814 11.4933 568.52 12.144 568.446 12.976H573.982ZM579.184 10.432V15.6C579.184 16.0267 579.274 16.3307 579.456 16.512C579.637 16.6827 579.952 16.768 580.4 16.768H581.472V18H580.16C579.349 18 578.741 17.8133 578.336 17.44C577.93 17.0667 577.728 16.4533 577.728 15.6V10.432H576.592V9.232H577.728V7.024H579.184V9.232H581.472V10.432H579.184ZM582.692 13.584C582.692 12.688 582.873 11.904 583.236 11.232C583.598 10.5493 584.094 10.0213 584.724 9.648C585.364 9.27467 586.073 9.088 586.852 9.088C587.62 9.088 588.286 9.25333 588.852 9.584C589.417 9.91467 589.838 10.3307 590.116 10.832V9.232H591.588V18H590.116V16.368C589.828 16.88 589.396 17.3067 588.82 17.648C588.254 17.9787 587.593 18.144 586.836 18.144C586.057 18.144 585.353 17.952 584.724 17.568C584.094 17.184 583.598 16.6453 583.236 15.952C582.873 15.2587 582.692 14.4693 582.692 13.584ZM590.116 13.6C590.116 12.9387 589.982 12.3627 589.716 11.872C589.449 11.3813 589.086 11.008 588.628 10.752C588.18 10.4853 587.684 10.352 587.14 10.352C586.596 10.352 586.1 10.48 585.652 10.736C585.204 10.992 584.846 11.3653 584.58 11.856C584.313 12.3467 584.18 12.9227 584.18 13.584C584.18 14.256 584.313 14.8427 584.58 15.344C584.846 15.8347 585.204 16.2133 585.652 16.48C586.1 16.736 586.596 16.864 587.14 16.864C587.684 16.864 588.18 16.736 588.628 16.48C589.086 16.2133 589.449 15.8347 589.716 15.344C589.982 14.8427 590.116 14.2613 590.116 13.6ZM594.8 7.808C594.523 7.808 594.288 7.712 594.096 7.52C593.904 7.328 593.808 7.09333 593.808 6.816C593.808 6.53867 593.904 6.304 594.096 6.112C594.288 5.92 594.523 5.824 594.8 5.824C595.067 5.824 595.291 5.92 595.472 6.112C595.664 6.304 595.76 6.53867 595.76 6.816C595.76 7.09333 595.664 7.328 595.472 7.52C595.291 7.712 595.067 7.808 594.8 7.808ZM595.504 9.232V18H594.048V9.232H595.504ZM599.442 6.16V18H597.986V6.16H599.442ZM605.027 18.144C604.355 18.144 603.752 18.032 603.219 17.808C602.686 17.5733 602.264 17.2533 601.955 16.848C601.646 16.432 601.475 15.9573 601.443 15.424H602.947C602.99 15.8613 603.192 16.2187 603.555 16.496C603.928 16.7733 604.414 16.912 605.011 16.912C605.566 16.912 606.003 16.7893 606.323 16.544C606.643 16.2987 606.803 15.9893 606.803 15.616C606.803 15.232 606.632 14.9493 606.291 14.768C605.95 14.576 605.422 14.3893 604.707 14.208C604.056 14.0373 603.523 13.8667 603.107 13.696C602.702 13.5147 602.35 13.2533 602.051 12.912C601.763 12.56 601.619 12.1013 601.619 11.536C601.619 11.088 601.752 10.6773 602.019 10.304C602.286 9.93067 602.664 9.63733 603.155 9.424C603.646 9.2 604.206 9.088 604.835 9.088C605.806 9.088 606.59 9.33333 607.187 9.824C607.784 10.3147 608.104 10.9867 608.147 11.84H606.691C606.659 11.3813 606.472 11.0133 606.131 10.736C605.8 10.4587 605.352 10.32 604.787 10.32C604.264 10.32 603.848 10.432 603.539 10.656C603.23 10.88 603.075 11.1733 603.075 11.536C603.075 11.824 603.166 12.064 603.347 12.256C603.539 12.4373 603.774 12.5867 604.051 12.704C604.339 12.8107 604.734 12.9333 605.235 13.072C605.864 13.2427 606.376 13.4133 606.771 13.584C607.166 13.744 607.502 13.9893 607.779 14.32C608.067 14.6507 608.216 15.0827 608.227 15.616C608.227 16.096 608.094 16.528 607.827 16.912C607.56 17.296 607.182 17.6 606.691 17.824C606.211 18.0373 605.656 18.144 605.027 18.144Z" fill="#787887"/>
</svg>
